<?xml version="1.0" encoding="UTF-8"?>
<!-- Generated by Pixelmator Pro 3.6.15 -->
<svg width="1000" height="1000" viewBox="0 0 1000 1000" xmlns="http://www.w3.org/2000/svg">
    <path id="Logo-Shape" fill="#fffc67" fill-rule="evenodd" stroke="none" d="M 869.444458 500 C 869.444458 295.961487 704.038513 130.555542 500 130.555542 C 295.961456 130.555542 130.555557 295.961487 130.555557 500 C 130.555557 704.038574 295.961456 869.444458 500 869.444458 C 704.038513 869.444458 869.444458 704.038574 869.444458 500 Z"/>
    <g id="Group">
        <g id="g1">
            <path id="Rectangle" fill="#222222" fill-rule="evenodd" stroke="#222222" stroke-width="20" stroke-linecap="round" stroke-linejoin="round" d="M 0 511.111115 L 1000 511.111115 L 1000 488.888885 L 0 488.888885 Z"/>
            <path id="Rectangle-copy" fill="#222222" fill-rule="evenodd" stroke="#222222" stroke-width="20" stroke-linecap="round" stroke-linejoin="round" d="M 522.222229 1000 L 522.222229 0 L 500 0 L 500 1000 Z"/>
        </g>
        <path id="XO" fill="#222222" fill-rule="evenodd" stroke="none" d="M 761.467468 944.931702 C 716.387268 944.931702 681.935608 932.663208 658.111511 908.125854 C 626.155884 878.02478 610.178284 834.657104 610.178284 778.021423 C 610.178284 720.244507 626.155884 676.87677 658.111511 647.916992 C 681.935608 623.379639 716.387268 611.111084 761.467468 611.111084 C 806.547729 611.111084 840.99939 623.379639 864.823486 647.916992 C 896.636353 676.87677 912.542725 720.244507 912.542725 778.021423 C 912.542725 834.657104 896.636353 878.02478 864.823486 908.125854 C 840.99939 932.663208 806.547729 944.931702 761.467468 944.931702 Z M 823.737854 860.192627 C 839.002502 840.933655 846.634521 813.543579 846.634521 778.021423 C 846.634521 742.641968 838.966736 715.287537 823.630859 695.957153 C 808.295044 676.626831 787.574097 666.961853 761.467468 666.961853 C 735.360901 666.961853 714.532959 676.591187 698.983093 695.85022 C 683.433289 715.109192 675.658508 742.499268 675.658508 778.021423 C 675.658508 813.543579 683.433289 840.933655 698.983093 860.192627 C 714.532959 879.45166 735.360901 889.080933 761.467468 889.080933 C 787.574097 889.080933 808.33075 879.45166 823.737854 860.192627 Z M 372.883026 388.888916 L 288.333588 388.888916 L 225.034561 275.402771 L 158.118408 388.888916 L 77.186058 388.888916 L 184.3423 219.111816 L 82.385628 55.664673 L 165.578659 55.664673 L 225.034561 163.951233 L 286.072906 55.664673 L 366.553101 55.664673 L 264.596436 216.398987 Z"/>
    </g>
</svg>
